<?xml version="1.0" encoding="UTF-8" standalone="no"?>
<!DOCTYPE svg PUBLIC "-//W3C//DTD SVG 1.1//EN" "http://www.w3.org/Graphics/SVG/1.1/DTD/svg11.dtd">
<svg width="100%" height="100%" viewBox="0 0 84 64" version="1.1" xmlns="http://www.w3.org/2000/svg" xmlns:xlink="http://www.w3.org/1999/xlink" xml:space="preserve" xmlns:serif="http://www.serif.com/" style="fill-rule:evenodd;clip-rule:evenodd;stroke-linejoin:round;stroke-miterlimit:2;">
    <g>
        <g>
            <path d="M76.286,29.93c-2.892,-0 -5.24,2.349 -5.24,5.238c-0.001,2.891 2.349,5.242 5.239,5.242c2.889,-0 5.238,-2.352 5.238,-5.242c0,-2.889 -2.35,-5.238 -5.238,-5.238Z" style="fill:#ff460b;fill-rule:nonzero;"/>
            <path d="M62.62,29.93c-2.892,-0 -5.239,2.349 -5.239,5.238c0,2.891 2.348,5.242 5.238,5.242c2.889,-0 5.238,-2.352 5.238,-5.242c0,-2.889 -2.35,-5.238 -5.238,-5.238Z" style="fill:#ff460b;fill-rule:nonzero;"/>
            <path d="M21.398,29.93c-2.889,-0 -5.238,2.349 -5.238,5.238c-0,2.891 2.35,5.242 5.238,5.242c2.89,-0 5.237,-2.352 5.237,-5.242c0.001,-2.889 -2.347,-5.238 -5.237,-5.238Z" style="fill:#ff460b;fill-rule:nonzero;"/>
            <path d="M7.735,29.93c-2.891,-0 -5.241,2.349 -5.241,5.238c-0,2.891 2.351,5.242 5.241,5.242c2.887,-0 5.234,-2.352 5.234,-5.242c0,-2.889 -2.348,-5.238 -5.235,-5.238Z" style="fill:#ff460b;fill-rule:nonzero;"/>
            <path d="M76.286,26.519c2.888,-0.001 5.237,-2.351 5.237,-5.239c0.001,-2.89 -2.349,-5.241 -5.237,-5.241c-2.892,0 -5.24,2.351 -5.24,5.241c-0.002,2.888 2.349,5.238 5.239,5.238Z" style="fill:#ff460b;fill-rule:nonzero;"/>
            <path d="M62.62,16.039c-2.892,0 -5.239,2.351 -5.239,5.241c0,2.888 2.348,5.238 5.238,5.238c2.889,0 5.238,-2.35 5.238,-5.238c0,-2.89 -2.35,-5.241 -5.238,-5.241Z" style="fill:#ff460b;fill-rule:nonzero;"/>
            <path d="M48.956,16.039c-2.892,0 -5.243,2.351 -5.243,5.241c0.001,2.888 2.352,5.238 5.243,5.238c2.886,0 5.233,-2.35 5.233,-5.238c0,-2.89 -2.348,-5.241 -5.234,-5.241Z" style="fill:#ff460b;fill-rule:nonzero;"/>
            <path d="M35.064,16.039c-2.89,0 -5.24,2.351 -5.24,5.241c0,2.888 2.352,5.238 5.239,5.238c2.891,0 5.239,-2.35 5.239,-5.238c0.002,-2.89 -2.348,-5.241 -5.238,-5.241Z" style="fill:#ff460b;fill-rule:nonzero;"/>
            <path d="M21.398,16.039c-2.889,0 -5.238,2.351 -5.238,5.241c-0,2.888 2.35,5.238 5.238,5.238c2.89,0 5.237,-2.35 5.237,-5.238c0.001,-2.89 -2.347,-5.241 -5.237,-5.241Z" style="fill:#ff460b;fill-rule:nonzero;"/>
            <path d="M62.62,2.15c-2.892,0 -5.239,2.35 -5.239,5.239c0,2.89 2.348,5.239 5.238,5.239c2.889,0 5.238,-2.351 5.238,-5.24c0,-2.888 -2.35,-5.238 -5.238,-5.238Z" style="fill:#ff460b;fill-rule:nonzero;"/>
            <path d="M48.956,2.15c-2.892,0 -5.243,2.35 -5.243,5.239c0.001,2.89 2.352,5.239 5.243,5.239c2.886,0 5.233,-2.351 5.233,-5.24c0,-2.888 -2.348,-5.238 -5.234,-5.238Z" style="fill:#ff460b;fill-rule:nonzero;"/>
            <path d="M35.064,2.15c-2.89,0 -5.24,2.35 -5.24,5.239c0,2.89 2.352,5.239 5.239,5.239c2.891,0 5.239,-2.351 5.239,-5.24c0.002,-2.888 -2.348,-5.238 -5.238,-5.238Z" style="fill:#ff460b;fill-rule:nonzero;"/>
            <path d="M21.398,2.15c-2.889,0 -5.238,2.35 -5.238,5.239c-0,2.89 2.35,5.239 5.238,5.239c2.89,0 5.237,-2.351 5.237,-5.24c0.001,-2.888 -2.347,-5.238 -5.237,-5.238Z" style="fill:#ff460b;fill-rule:nonzero;"/>
            <path d="M7.735,16.039c-2.891,0 -5.241,2.351 -5.241,5.241c-0,2.888 2.351,5.238 5.241,5.238c2.887,0 5.234,-2.35 5.234,-5.238c0,-2.89 -2.348,-5.241 -5.235,-5.241Z" style="fill:#ff460b;fill-rule:nonzero;"/>
        </g>
        <g>
            <path d="M20.304,46.576l-2.597,-0.001c-0.163,0 -0.299,0.133 -0.299,0.297l0,14.762c0,0.164 0.136,0.298 0.299,0.298l2.596,0c0.16,0 0.296,-0.136 0.296,-0.298l-0,-14.761c-0,-0.161 -0.136,-0.297 -0.296,-0.297Z" style="fill:#ff460b;fill-rule:nonzero;"/>
            <path d="M12.437,53.899c1.162,-0.772 1.729,-1.83 1.729,-3.232l-0,-0.041c-0,-1.062 -0.354,-1.932 -1.078,-2.657c-0.91,-0.912 -2.318,-1.394 -4.07,-1.394l-6.448,0c-0.163,0 -0.298,0.133 -0.298,0.297l-0,14.762c-0,0.164 0.135,0.298 0.299,0.298l6.656,0c3.604,0 5.759,-1.625 5.759,-4.347l0,-0.043c0.001,-1.736 -0.809,-2.894 -2.55,-3.643Zm-3.188,5.139l-3.831,0l-0,-3.455l3.643,0c1.249,0 2.74,0.293 2.74,1.686l-0,0.043c-0.001,1.501 -1.598,1.726 -2.552,1.726Zm-3.832,-6.242l0.001,-3.328l3.262,0c1.459,0 2.297,0.576 2.297,1.58l-0,0.041c-0,1.485 -1.557,1.707 -2.486,1.707l-3.073,0Z" style="fill:#ff460b;fill-rule:nonzero;"/>
            <path d="M35.04,46.576l-11.977,-0.001c-0.162,0 -0.296,0.133 -0.296,0.297l0,2.404c0,0.163 0.133,0.296 0.296,0.296l4.383,-0l-0,12.062c-0,0.164 0.135,0.298 0.299,0.298l2.613,-0c0.164,-0 0.299,-0.134 0.299,-0.298l-0,-12.062l4.383,-0c0.163,-0 0.296,-0.132 0.296,-0.295l0,-2.404c0.001,-0.167 -0.13,-0.297 -0.296,-0.297Z" style="fill:#ff460b;fill-rule:nonzero;"/>
            <path d="M59.356,46.576l-2.724,-0.001c-0.129,0 -0.244,0.084 -0.281,0.204l-3.246,10.077l-3.34,-10.116c-0.038,-0.122 -0.154,-0.206 -0.282,-0.206l-2.196,0c-0.129,0 -0.242,0.081 -0.279,0.201l-3.342,10.124l-3.244,-10.081c-0.041,-0.122 -0.154,-0.203 -0.281,-0.203l-2.803,0c-0.098,0 -0.182,0.042 -0.25,0.129c-0.053,0.076 -0.064,0.179 -0.031,0.265l5.145,14.872c0.045,0.119 0.154,0.195 0.279,0.195l2.236,0c0.125,0 0.238,-0.079 0.281,-0.199l3.346,-9.788l3.344,9.787c0.041,0.118 0.156,0.2 0.283,0.2l2.236,0c0.125,0 0.24,-0.081 0.275,-0.191l5.15,-14.88c0.031,-0.095 0.016,-0.194 -0.045,-0.274c-0.056,-0.073 -0.142,-0.116 -0.232,-0.116Z" style="fill:#ff460b;fill-rule:nonzero;"/>
            <path d="M64.754,46.576l-2.595,-0.001c-0.162,0 -0.295,0.133 -0.295,0.297l0,14.762c0,0.164 0.133,0.298 0.295,0.298l2.594,0c0.163,0 0.297,-0.134 0.297,-0.298l0.001,-14.761c-0.001,-0.164 -0.135,-0.297 -0.297,-0.297Z" style="fill:#ff460b;fill-rule:nonzero;"/>
            <path d="M81.565,53.094l-6.285,-0.001c-0.163,0 -0.296,0.132 -0.296,0.295l0.001,2.258c-0.001,0.164 0.132,0.297 0.294,0.297l3.48,0l-0.001,2.312c-0.888,0.619 -2.079,0.974 -3.267,0.974c-2.779,0 -4.722,-2.046 -4.722,-4.975l0,-0.044c0,-2.709 2.016,-4.914 4.49,-4.914c1.805,0 2.846,0.579 3.943,1.516c0.051,0.041 0.102,0.064 0.23,0.066c0.059,-0.007 0.139,-0.039 0.184,-0.101l1.646,-1.966c0.051,-0.059 0.076,-0.139 0.07,-0.223c-0.01,-0.076 -0.047,-0.145 -0.104,-0.191c-1.738,-1.475 -3.439,-2.075 -5.867,-2.075c-4.434,0 -7.908,3.483 -7.908,7.932l0,0.04c0,4.646 3.27,7.889 7.953,7.889c2.963,0 5.088,-1.287 6.35,-2.369c0.064,-0.055 0.104,-0.141 0.104,-0.224l0,-6.202c0.002,-0.163 -0.131,-0.295 -0.295,-0.295Z" style="fill:#ff460b;fill-rule:nonzero;"/>
        </g>
    </g>
</svg>
