<?xml version="1.0" encoding="utf-8"?>
<!-- Generator: Adobe Illustrator 28.1.0, SVG Export Plug-In . SVG Version: 6.00 Build 0)  -->
<svg version="1.1" id="Calque_1" xmlns:serif="http://www.serif.com/"
	 xmlns="http://www.w3.org/2000/svg" xmlns:xlink="http://www.w3.org/1999/xlink" x="0px" y="0px" viewBox="0 0 112.3 100"
	 style="enable-background:new 0 0 112.3 100;" xml:space="preserve">
<style type="text/css">
	.st0{fill-rule:evenodd;clip-rule:evenodd;}
</style>
<path class="st0" d="M91.4,10c2.9,0,5.7,1.2,7.7,3.2c2.1,2.1,3.2,4.8,3.2,7.7v21.2c0,2.9-1.2,5.7-3.2,7.7c-2.1,2-4.8,3.2-7.7,3.2
	H20.9c-2.9,0-5.7-1.2-7.7-3.2C11.2,47.8,10,45,10,42.1V20.9c0-2.9,1.2-5.7,3.2-7.7c2.1-2,4.8-3.2,7.7-3.2H91.4z M91.4,16.2H20.9
	c-1.3,0-2.5,0.5-3.4,1.4c-0.9,0.9-1.4,2.1-1.4,3.4v21.2c0,1.3,0.5,2.5,1.4,3.4c0.9,0.9,2.1,1.4,3.4,1.4h70.4c1.3,0,2.5-0.5,3.4-1.4
	c0.9-0.9,1.4-2.1,1.4-3.4V20.9c0-1.3-0.5-2.5-1.4-3.4C93.9,16.7,92.6,16.2,91.4,16.2z"/>
<path class="st0" d="M91.4,46.9c2.9,0,5.7,1.2,7.7,3.2c2.1,2.1,3.2,4.8,3.2,7.7v21.2c0,2.9-1.2,5.7-3.2,7.7c-2.1,2-4.8,3.2-7.7,3.2
	H20.9c-2.9,0-5.7-1.2-7.7-3.2C11.2,84.7,10,82,10,79.1V57.9c0-2.9,1.2-5.7,3.2-7.7c2.1-2,4.8-3.2,7.7-3.2H91.4z M91.4,53.1H20.9
	c-1.3,0-2.5,0.5-3.4,1.4c-0.9,0.9-1.4,2.1-1.4,3.4v21.2c0,1.3,0.5,2.5,1.4,3.4c0.9,0.9,2.1,1.4,3.4,1.4h70.4c1.3,0,2.5-0.5,3.4-1.4
	c0.9-0.9,1.4-2.1,1.4-3.4V57.9c0-1.3-0.5-2.5-1.4-3.4C93.9,53.6,92.6,53.1,91.4,53.1z"/>
<circle class="st0" cx="28.5" cy="31.5" r="6.2"/>
<circle class="st0" cx="28.5" cy="68.5" r="6.2"/>
<circle class="st0" cx="46.9" cy="31.5" r="6.2"/>
<circle class="st0" cx="46.9" cy="68.5" r="6.2"/>
<circle class="st0" cx="62.3" cy="25.4" r="3.1"/>
<circle class="st0" cx="62.3" cy="62.3" r="3.1"/>
<circle class="st0" cx="62.3" cy="37.7" r="3.1"/>
<circle class="st0" cx="62.3" cy="74.6" r="3.1"/>
<circle class="st0" cx="80.8" cy="31.5" r="9.2"/>
<circle class="st0" cx="80.8" cy="68.5" r="9.2"/>
</svg>
