<?xml version="1.0" encoding="utf-8"?>
<!-- Generator: Adobe Illustrator 28.1.0, SVG Export Plug-In . SVG Version: 6.00 Build 0)  -->
<svg version="1.1" id="Calque_1" xmlns:serif="http://www.serif.com/"
	 xmlns="http://www.w3.org/2000/svg" xmlns:xlink="http://www.w3.org/1999/xlink" x="0px" y="0px" viewBox="0 0 82.2 100"
	 style="enable-background:new 0 0 82.2 100;" xml:space="preserve">
<style type="text/css">
	.st0{fill-rule:evenodd;clip-rule:evenodd;}
</style>
<path class="st0" d="M63.3,10H18.9C14,10,10,14,10,18.9v8.9v8.9v8.9v8.9v8.9v8.9v8.9c0,4.9,4,8.9,8.9,8.9h44.4c4.9,0,8.9-4,8.9-8.9
	v-8.9v-8.9v-8.9v-8.9v-8.9v-8.9v-8.9C72.2,14,68.2,10,63.3,10z M63.3,81.1H18.9v-8.9h44.4V81.1z M63.3,63.3H18.9v-8.9h44.4V63.3z
	 M63.3,45.6H18.9v-8.9h44.4V45.6z M18.9,27.8v-8.9h44.4v8.9H18.9z"/>
</svg>
