<?xml version="1.0" encoding="UTF-8"?>
<svg xmlns="http://www.w3.org/2000/svg" viewBox="0 0 15 15" width="15" height="15">
  <rect x="2" y="2" width="2" height="2"/>
  <rect x="5" y="2" width="2" height="2"/>
  <rect x="8" y="2" width="2" height="2"/>
  <rect x="11" y="2" width="2" height="2"/>
  <rect x="2" y="5" width="2" height="2"/>
  <rect x="5" y="5" width="2" height="2"/>
  <rect x="8" y="5" width="2" height="2"/>
  <rect x="11" y="5" width="2" height="2"/>
  <rect x="2" y="8" width="2" height="2"/>
  <rect x="5" y="8" width="2" height="2"/>
  <rect x="8" y="8" width="2" height="2"/>
  <rect x="11" y="8" width="2" height="2"/>
  <rect x="2" y="11" width="2" height="2"/>
  <rect x="5" y="11" width="2" height="2"/>
  <rect x="8" y="11" width="2" height="2"/>
  <rect x="11" y="11" width="2" height="2"/>
</svg>
