<?xml version="1.0" encoding="utf-8"?>
<!-- Generator: Adobe Illustrator 28.1.0, SVG Export Plug-In . SVG Version: 6.00 Build 0)  -->
<svg version="1.1" id="Calque_1" xmlns:serif="http://www.serif.com/"
	 xmlns="http://www.w3.org/2000/svg" xmlns:xlink="http://www.w3.org/1999/xlink" x="0px" y="0px" viewBox="0 0 100 100"
	 style="enable-background:new 0 0 100 100;" xml:space="preserve">
<path d="M87.5,10h-75c-1.4,0-2.5,1.1-2.5,2.5v75c0,1.4,1.1,2.5,2.5,2.5h75c1.4,0,2.5-1.1,2.5-2.5v-75C90,11.1,88.9,10,87.5,10z
	 M32.9,57.1h3.3V85H15V15h15.4v39.5C30.4,55.9,31.5,57.1,32.9,57.1z M38.8,57.1h3.3c1.4,0,2.6-1.1,2.6-2.6V15h10.7v39.5
	c0,1.4,1.1,2.6,2.6,2.6h3.3V85H38.8V57.1z M63.8,57.1h3.3c1.4,0,2.6-1.1,2.6-2.6V15H85v70H63.8V57.1z"/>
</svg>
