<?xml version="1.0" encoding="utf-8"?>
<!-- Generator: Adobe Illustrator 28.1.0, SVG Export Plug-In . SVG Version: 6.00 Build 0)  -->
<svg version="1.1" id="Calque_1" xmlns:serif="http://www.serif.com/"
	 xmlns="http://www.w3.org/2000/svg" xmlns:xlink="http://www.w3.org/1999/xlink" x="0px" y="0px" viewBox="0 0 64 64"
	 style="enable-background:new 0 0 64 64;" xml:space="preserve">
<path d="M32,53.5c-11.9,0-21.5-9.6-21.5-21.5c0-5.6,2.2-10.8,6.1-14.9c0.8-0.9,2.2-0.9,3.1,0c0.8,0.9,0.8,2.2,0,3.1
	c-3.2,3.2-4.9,7.5-4.9,11.9c0,9.4,7.7,17.1,17.2,17.1s17.2-7.7,17.2-17.1c0-4.4-1.7-8.6-4.9-11.9c-0.8-0.9-0.8-2.2,0-3.1
	c0.8-0.9,2.2-0.9,3.1,0c3.9,4.1,6.1,9.3,6.1,14.9C53.5,43.9,43.9,53.5,32,53.5z M32,34.1c-1.2,0-2.2-1-2.2-2.1V9.8
	c0-1.2,1-2.1,2.2-2.1c1.2,0,2.2,1,2.2,2.1V32C34.2,33.1,33.2,34.1,32,34.1z"/>
</svg>
