<?xml version="1.0" encoding="utf-8"?>
<!-- Generator: Adobe Illustrator 28.1.0, SVG Export Plug-In . SVG Version: 6.00 Build 0)  -->
<svg version="1.1" id="Calque_1" xmlns:serif="http://www.serif.com/"
	 xmlns="http://www.w3.org/2000/svg" xmlns:xlink="http://www.w3.org/1999/xlink" x="0px" y="0px" viewBox="0 0 114.5 100"
	 style="enable-background:new 0 0 114.5 100;" xml:space="preserve">
<style type="text/css">
	.st0{fill-rule:evenodd;clip-rule:evenodd;}
</style>
<path class="st0" d="M90,10H39.1H24.5h0c-4.5,0-8.6,2.1-11.2,5.3C11.2,17.8,10,21,10,24.5v50.9c0,0.5,0,1,0.1,1.5
	c0.1,1,0.3,1.9,0.6,2.8c0.3,0.9,0.7,1.8,1.1,2.6C14.2,86.9,19,90,24.5,90h0h14.5H90c8,0,14.5-6.5,14.5-14.5V24.5
	C104.5,16.5,98,10,90,10z M90,17.3c4,0,7.3,3.3,7.3,7.3v3.3H39.1V17.3H90z M39.1,46.4V35.1h58.2v11.3H39.1z M97.3,53.6v11.3H39.1
	V53.6H97.3z M90,82.7H39.1V72.2h58.2v3.3C97.3,79.5,94,82.7,90,82.7z"/>
</svg>
