<?xml version="1.0" encoding="utf-8"?>
<!-- Generator: Adobe Illustrator 15.0.0, SVG Export Plug-In . SVG Version: 6.00 Build 0)  -->
<!DOCTYPE svg PUBLIC "-//W3C//DTD SVG 1.1//EN" "http://www.w3.org/Graphics/SVG/1.1/DTD/svg11.dtd">
<svg version="1.1" id="Layer_1" xmlns="http://www.w3.org/2000/svg" xmlns:xlink="http://www.w3.org/1999/xlink" x="0px" y="0px"
	 width="15px" height="15px" viewBox="0 0 15 15" enable-background="new 0 0 15 15" xml:space="preserve">
<rect x="2" y="2" width="2" height="2"/>
<rect x="5" y="2" width="2" height="2"/>
<rect x="8" y="2" width="2" height="2"/>
<rect x="11" y="2" width="2" height="2"/>
<rect x="2" y="5" width="2" height="2"/>
<rect x="5" y="5" width="2" height="2"/>
<rect x="8" y="5" width="2" height="2"/>
<rect x="11" y="5" width="2" height="2"/>
<rect x="2" y="8" width="2" height="2"/>
<rect x="5" y="8" width="2" height="2"/>
<rect x="8" y="8" width="2" height="2"/>
<rect x="11" y="8" width="2" height="2"/>
<rect x="2" y="11" width="2" height="2"/>
<rect x="5" y="11" width="2" height="2"/>
<rect x="8" y="11" width="2" height="2"/>
<rect x="11" y="11" width="2" height="2"/>
</svg>
