<?xml version="1.0" encoding="UTF-8" standalone="no"?>
<!DOCTYPE svg PUBLIC "-//W3C//DTD SVG 1.1//EN" "http://www.w3.org/Graphics/SVG/1.1/DTD/svg11.dtd">
<svg width="100%" height="100%" viewBox="0 0 15 15" version="1.1" xmlns="http://www.w3.org/2000/svg" xmlns:xlink="http://www.w3.org/1999/xlink" xml:space="preserve" xmlns:serif="http://www.serif.com/" style="fill-rule:evenodd;clip-rule:evenodd;stroke-linejoin:round;stroke-miterlimit:2;">
    <rect id="master_track" x="0" y="0" width="15" height="15" style="fill:none;"/>
    <path id="path3366" d="M3,10.5L1.45,5.114C1.45,5.114 3.559,6.117 4.561,6.593C4.852,6.732 5.202,6.624 5.364,6.344C5.757,5.667 6.47,4.437 6.963,3.587C7.074,3.395 7.279,3.277 7.5,3.277C7.721,3.277 7.926,3.395 8.037,3.587C8.53,4.437 9.243,5.667 9.636,6.344C9.798,6.624 10.148,6.732 10.439,6.593C11.441,6.117 13.55,5.114 13.55,5.114L12,10.5L3,10.5" style="fill-rule:nonzero;"/>
    <rect id="rect4136" x="3" y="11" width="9" height="1" style="fill-rule:nonzero;"/>
</svg>
