<?xml version="1.0" encoding="UTF-8" standalone="no"?>
<!DOCTYPE svg PUBLIC "-//W3C//DTD SVG 1.1//EN" "http://www.w3.org/Graphics/SVG/1.1/DTD/svg11.dtd">
<svg width="100%" height="100%" viewBox="0 0 19 19" version="1.1" xmlns="http://www.w3.org/2000/svg" xmlns:xlink="http://www.w3.org/1999/xlink" xml:space="preserve" xmlns:serif="http://www.serif.com/" style="fill-rule:evenodd;clip-rule:evenodd;stroke-linejoin:round;stroke-miterlimit:2;">
    <rect id="remote_control_preset_page" x="-0" y="0" width="19" height="19" style="fill:none;"/>
    <path d="M5,9.5C5,11.987 7.013,14 9.5,14C11.987,14 14,11.987 14,9.5C14,7.013 11.987,5 9.5,5C7.013,5 5,7.013 5,9.5ZM10.226,6.673L10.226,8.327C10.226,8.699 9.925,9 9.554,9L9.446,9C9.075,9 8.774,8.699 8.774,8.327L8.774,6.673C8.774,6.301 9.075,6 9.446,6L9.554,6C9.925,6 10.226,6.301 10.226,6.673Z"/>
</svg>
