<?xml version="1.0" encoding="utf-8"?>
<!-- Generator: Adobe Illustrator 28.1.0, SVG Export Plug-In . SVG Version: 6.00 Build 0)  -->
<svg version="1.1" id="Calque_1" xmlns="http://www.w3.org/2000/svg" xmlns:xlink="http://www.w3.org/1999/xlink" x="0px" y="0px"
	 viewBox="0 0 84.3 100" style="enable-background:new 0 0 84.3 100;" xml:space="preserve">
<path d="M35.1,10c-7.6,0-14.4,2.9-18.7,7.5C11.9,22.1,10,28,10,33.9s1.9,11.8,6.4,16.4c4.3,4.6,11.2,7.5,18.7,7.5h14.2
	c4,0,5.8,1.2,7.2,2.6c1.4,1.5,2.3,3.6,2.3,5.8c0,2.1-0.9,4.3-2.3,5.7c-1.4,1.5-3.2,2.7-7.2,2.7H13V90h36.3c7.6,0,14.4-2.9,18.7-7.5
	c4.4-4.6,6.4-10.5,6.4-16.4S72.5,54.3,68,49.7c-4.3-4.6-11.2-7.5-18.7-7.5H35.1c-4,0-5.8-1.2-7.2-2.7c-1.4-1.4-2.3-3.5-2.3-5.7
	s0.9-4.3,2.3-5.8c1.4-1.4,3.2-2.6,7.2-2.6h34.7V10H35.1z"/>
</svg>
