<?xml version="1.0" encoding="UTF-8" standalone="no"?>
<!DOCTYPE svg PUBLIC "-//W3C//DTD SVG 1.1//EN" "http://www.w3.org/Graphics/SVG/1.1/DTD/svg11.dtd">
<svg width="100%" height="100%" viewBox="0 0 15 15" version="1.1" xmlns="http://www.w3.org/2000/svg" xmlns:xlink="http://www.w3.org/1999/xlink" xml:space="preserve" xmlns:serif="http://www.serif.com/" style="fill-rule:evenodd;clip-rule:evenodd;stroke-linejoin:round;stroke-miterlimit:2;">
    <rect id="return_track" x="0" y="0" width="15" height="15" style="fill:none;"/>
    <path id="polygon3283" d="M3.014,4.956L3.16,4.811C3.16,4.893 3.097,4.961 3.017,4.97C3.016,4.965 3.015,4.961 3.014,4.956ZM3.16,4.811C3.16,4.485 3.424,4.221 3.75,4.221L6.25,4.221C7.819,4.221 9.09,5.492 9.09,7.061L9.09,10C9.09,10.065 9.129,10.123 9.189,10.148C9.249,10.172 9.317,10.159 9.363,10.113L11.47,8.007L12.304,8.841L8.5,12.646L4.696,8.841L5.53,8.007L7.637,10.113C7.683,10.159 7.751,10.172 7.811,10.148C7.871,10.123 7.91,10.065 7.91,10L7.91,6.828C7.91,6.04 7.271,5.401 6.483,5.401L3.75,5.401C3.593,5.401 3.443,5.339 3.333,5.228C3.222,5.118 3.16,4.968 3.16,4.811Z" style="fill-rule:nonzero;"/>
</svg>
