<?xml version="1.0" encoding="utf-8"?>
<!-- Generator: Adobe Illustrator 28.1.0, SVG Export Plug-In . SVG Version: 6.00 Build 0)  -->
<svg version="1.1" id="Calque_1" xmlns:serif="http://www.serif.com/"
	 xmlns="http://www.w3.org/2000/svg" xmlns:xlink="http://www.w3.org/1999/xlink" x="0px" y="0px" viewBox="0 0 100 100"
	 style="enable-background:new 0 0 100 100;" xml:space="preserve">
<path d="M64.5,41.1c2.5,1.4,5.3,2.2,8.4,2.2c9.4,0,17.1-7.4,17.1-16.7c0-9.1-7.6-16.7-17.1-16.7s-17.1,7.4-17.1,16.7
	c0,3.3,1,6.4,2.7,9L35.7,59.3c-2.6-1.7-5.7-2.6-9-2.6c-9.1,0-16.7,7.4-16.7,16.7c0,9.1,7.4,16.7,16.7,16.7c9.1,0,16.7-7.4,16.7-16.7
	c0-3-0.8-5.7-2.1-8.1L64.5,41.1z"/>
</svg>
