<?xml version="1.0" encoding="utf-8"?>
<!-- Generator: Adobe Illustrator 28.1.0, SVG Export Plug-In . SVG Version: 6.00 Build 0)  -->
<svg version="1.1"
	 id="Layer_1" xmlns:dc="http://purl.org/dc/elements/1.1/" xmlns:cc="http://creativecommons.org/ns#" xmlns:inkscape="http://www.inkscape.org/namespaces/inkscape" xmlns:svg="http://www.w3.org/2000/svg" xmlns:sodipodi="http://sodipodi.sourceforge.net/DTD/sodipodi-0.dtd" xmlns:rdf="http://www.w3.org/1999/02/22-rdf-syntax-ns#"
	 xmlns="http://www.w3.org/2000/svg" xmlns:xlink="http://www.w3.org/1999/xlink" x="0px" y="0px" viewBox="0 0 110.9 100"
	 style="enable-background:new 0 0 110.9 100;" xml:space="preserve">
<path d="M80.5,25.3h-7.2c-1.1,0-2,0.9-2,2v25.4c0,1.1,0.9,2,2,2h7.2c1.1,0,2-0.9,2-2V27.3C82.5,26.2,81.6,25.3,80.5,25.3z"/>
<path d="M52.1,54.7h11.2c1.1,0,2-0.9,2-2V27.3c0-1.1-0.9-2-2-2H52.1c-1.1,0-2-0.9-2-2v-8.6c0-1.6-1.9-2.6-3.2-1.6L12.1,38.4
	c-1.1,0.8-1.1,2.4,0,3.2L47,67c1.3,1,3.2,0,3.2-1.6v-8.6C50.1,55.6,51,54.7,52.1,54.7z"/>
<path d="M95.2,25.3h-4.3c-1.1,0-2,0.9-2,2v25.4c0,1.1,0.9,2,2,2h4.3c1.1,0,2-0.9,2-2V27.3C97.2,26.2,96.3,25.3,95.2,25.3z"/>
<path d="M91.5,60.9c-4.2,0.1-7.7,3.2-8.5,7.2c-0.1,0.7-0.6,1.2-1.3,1.5l-17.7,6c-0.7,0.2-1.4,0.1-2-0.4c-5.4-5.1-14.8-1.4-15,6.3
	c-0.1,5.1,3.9,9.2,9,9.2c4.9,0,8.8-3.9,9-8.6c0-0.8,0.5-1.6,1.3-1.8l16.3-5.6c0.8-0.3,1.7,0,2.2,0.7c5,6.5,16.2,3.1,16-5.8
	C100.6,64.8,96.4,60.8,91.5,60.9z"/>
</svg>
