<?xml version="1.0" encoding="utf-8"?>
<!-- Generator: Adobe Illustrator 28.1.0, SVG Export Plug-In . SVG Version: 6.00 Build 0)  -->
<svg version="1.1" id="Calque_1" xmlns:serif="http://www.serif.com/"
	 xmlns="http://www.w3.org/2000/svg" xmlns:xlink="http://www.w3.org/1999/xlink" x="0px" y="0px" viewBox="0 0 100 100"
	 style="enable-background:new 0 0 100 100;" xml:space="preserve">
<style type="text/css">
	.st0{fill:none;stroke:#000000;stroke-width:5;stroke-miterlimit:10;}
</style>
<path d="M78,45H57c-1.1,0-2-0.9-2-2V22c0-1.1-0.9-2-2-2h-6c-1.1,0-2,0.9-2,2v21c0,1.1-0.9,2-2,2H22c-1.1,0-2,0.9-2,2v6
	c0,1.1,0.9,2,2,2h21c1.1,0,2,0.9,2,2v21c0,1.1,0.9,2,2,2h6c1.1,0,2-0.9,2-2V57c0-1.1,0.9-2,2-2h21c1.1,0,2-0.9,2-2v-6
	C80,45.9,79.1,45,78,45z"/>
<path class="st0" d="M85,90H15c-2.7,0-5-2.2-5-5V15c0-2.7,2.2-5,5-5H85c2.7,0,5,2.2,5,5V85C90,87.8,87.8,90,85,90z"/>
</svg>
